name GIL06_slow2EmgEnv.mot
datacolumns 51
datarows 11
range 0.50925940 0.51851869
endheader
                time	   rect_fem_l_emgRec	   rect_fem_l_emgEnv	   rect_fem_l_emgAve	   rect_fem_l_emgSDp	   rect_fem_l_emgSDm	   rect_fem_r_emgRec	   rect_fem_r_emgEnv	   rect_fem_r_emgAve	   rect_fem_r_emgSDp	   rect_fem_r_emgSDm	   med_hams_l_emgRec	   med_hams_l_emgEnv	   med_hams_l_emgAve	   med_hams_l_emgSDp	   med_hams_l_emgSDm	   med_hams_r_emgRec	   med_hams_r_emgEnv	   med_hams_r_emgAve	   med_hams_r_emgSDp	   med_hams_r_emgSDm	   lat_hams_l_emgRec	   lat_hams_l_emgEnv	   lat_hams_l_emgAve	   lat_hams_l_emgSDp	   lat_hams_l_emgSDm	   lat_hams_r_emgRec	   lat_hams_r_emgEnv	   lat_hams_r_emgAve	   lat_hams_r_emgSDp	   lat_hams_r_emgSDm	    tib_ant_l_emgRec	    tib_ant_l_emgEnv	    tib_ant_l_emgAve	    tib_ant_l_emgSDp	    tib_ant_l_emgSDm	    tib_ant_r_emgRec	    tib_ant_r_emgEnv	    tib_ant_r_emgAve	    tib_ant_r_emgSDp	    tib_ant_r_emgSDm	    gas_sol_l_emgRec	    gas_sol_l_emgEnv	    gas_sol_l_emgAve	    gas_sol_l_emgSDp	    gas_sol_l_emgSDm	    gas_sol_r_emgRec	    gas_sol_r_emgEnv	    gas_sol_r_emgAve	    gas_sol_r_emgSDp	    gas_sol_r_emgSDm	
          0.50925940	          0.00871166	          0.04988543	          0.03498017	          0.06965214	          0.00030820	          0.07168892	          0.12999137	          0.26295117	          0.34859807	          0.17730426	          0.19979596	          0.38426682	          0.42572147	          0.53620185	          0.31524108	          0.07068120	          0.09760134	          0.16165465	          0.22626042	          0.09704889	          0.16464493	          0.15005737	          0.10140160	          0.16835124	          0.03445197	          0.01600860	          0.14201008	          0.29420498	          0.53649342	          0.05191654	          0.00017781	          0.04961911	          0.10300339	          0.15122520	          0.05478158	          0.00653542	          0.05863498	          0.18460296	          0.25355563	          0.11565029	          0.28989124	          0.60740270	          0.60190654	          0.67159306	          0.53222002	          0.00094070	          0.01066256	          0.01626314	          0.02309001	          0.00943628	
          0.51018536	          0.01196110	          0.05094660	          0.03538394	          0.07023538	          0.00053250	          0.13736879	          0.12957140	          0.26627368	          0.35308158	          0.17946578	          0.09993989	          0.38252113	          0.42669994	          0.53587692	          0.31752295	          0.03325928	          0.09738690	          0.16256464	          0.22717480	          0.09795447	          0.12527563	          0.15046830	          0.10182205	          0.16864901	          0.03499509	          0.06163327	          0.14254273	          0.29612574	          0.53833635	          0.05391513	          0.03446469	          0.04953116	          0.10227930	          0.14944507	          0.05511353	          0.00169089	          0.05696119	          0.18726949	          0.25634417	          0.11819482	          0.31321994	          0.61073150	          0.60589385	          0.67653333	          0.53525437	          0.00305507	          0.01050641	          0.01650586	          0.02357570	          0.00943603	
          0.51111126	          0.00987114	          0.05207622	          0.03580487	          0.07083921	          0.00077053	          0.17795340	          0.12919999	          0.26961020	          0.35758355	          0.18163685	          0.04158193	          0.38085813	          0.42762992	          0.53550838	          0.31975146	          0.00996514	          0.09720894	          0.16348328	          0.22809616	          0.09887039	          0.08640785	          0.15080021	          0.10224926	          0.16895792	          0.03554061	          0.08681047	          0.14301293	          0.29805580	          0.54017390	          0.05593769	          0.02764883	          0.04947113	          0.10155994	          0.14768517	          0.05543472	          0.00100970	          0.05523209	          0.18997096	          0.25917665	          0.12076526	          0.21802036	          0.61391469	          0.60982960	          0.68142146	          0.53823775	          0.01316841	          0.01034838	          0.01675307	          0.02406850	          0.00943764	
          0.51203716	          0.04565288	          0.05327317	          0.03624307	          0.07146379	          0.00102235	          0.02234922	          0.12888412	          0.27296063	          0.36210374	          0.18381753	          0.00294824	          0.37928404	          0.42851126	          0.53509639	          0.32192613	          0.00376595	          0.09706734	          0.16441062	          0.22902457	          0.09979667	          0.03717263	          0.15105304	          0.10268328	          0.16927812	          0.03608845	          0.08150340	          0.14341723	          0.29999489	          0.54200594	          0.05798383	          0.00952794	          0.04943827	          0.10084560	          0.14594607	          0.05574512	          0.01107719	          0.05345263	          0.19270687	          0.26205259	          0.12336115	          0.15707835	          0.61695393	          0.61371309	          0.68625644	          0.54116973	          0.01475675	          0.01018896	          0.01700475	          0.02456831	          0.00944119	
          0.51296312	          0.04972554	          0.05453614	          0.03669862	          0.07210924	          0.00128799	          0.13997364	          0.12863097	          0.27632466	          0.36664168	          0.18600764	          0.03094736	          0.37780501	          0.42934370	          0.53464109	          0.32404631	          0.01999231	          0.09696190	          0.16534661	          0.22996011	          0.10073310	          0.01653074	          0.15122691	          0.10312416	          0.16960978	          0.03663854	          0.07584952	          0.14375237	          0.30194280	          0.54383233	          0.06005326	          0.01985265	          0.04943178	          0.10013649	          0.14422832	          0.05604465	         -0.00013015	          0.05162817	          0.19547689	          0.26497164	          0.12598214	          0.05198629	          0.61985150	          0.61754328	          0.69103692	          0.54404964	          0.00530195	          0.01002870	          0.01726087	          0.02507501	          0.00944672	
          0.51388907	          0.04156495	          0.05586371	          0.03717155	          0.07277560	          0.00156751	          0.12050330	          0.12844788	          0.27970159	          0.37119637	          0.18820681	          0.04485353	          0.37642702	          0.43012670	          0.53414243	          0.32611096	          0.02823076	          0.09689233	          0.16629113	          0.23090273	          0.10167953	          0.03753164	          0.15132214	          0.10357184	          0.16995301	          0.03719067	          0.07725263	          0.14401536	          0.30389893	          0.54565264	          0.06214522	          0.02538316	          0.04945078	          0.09943296	          0.14253268	          0.05633324	          0.01865829	          0.04976439	          0.19828023	          0.26793303	          0.12862743	          0.00088852	          0.62261032	          0.62131894	          0.69576126	          0.54687661	          0.01744579	          0.00986815	          0.01752135	          0.02558843	          0.00945428	
          0.51481497	          0.04102514	          0.05725428	          0.03766189	          0.07346291	          0.00186087	          0.01779938	          0.12834233	          0.28309065	          0.37576673	          0.19041457	          0.04009830	          0.37515588	          0.43085980	          0.53360051	          0.32811910	          0.00990680	          0.09685827	          0.16724399	          0.23185232	          0.10263566	          0.01336888	          0.15133920	          0.10402632	          0.17030790	          0.03774474	          0.04458343	          0.14420343	          0.30586293	          0.54746664	          0.06425923	          0.00724214	          0.04949437	          0.09873537	          0.14085989	          0.05661085	          0.01912970	          0.04786740	          0.20111606	          0.27093592	          0.13129620	          0.11264305	          0.62523393	          0.62503850	          0.70042746	          0.54964955	          0.00116364	          0.00970790	          0.01778615	          0.02610837	          0.00946393	
          0.51574087	          0.03504531	          0.05870610	          0.03816970	          0.07417127	          0.00216813	         -0.00037607	          0.12832200	          0.28649163	          0.38035242	          0.19263084	          0.04869104	          0.37399715	          0.43154296	          0.53301558	          0.33007035	          0.00550377	          0.09685929	          0.16820517	          0.23280895	          0.10360140	          0.03467821	          0.15127876	          0.10448762	          0.17067463	          0.03830061	          0.01833062	          0.14431409	          0.30783436	          0.54927394	          0.06639478	          0.01026584	          0.04956158	          0.09804393	          0.13921043	          0.05687742	          0.00722516	          0.04594362	          0.20398401	          0.27397992	          0.13398810	          0.12065338	          0.62772643	          0.62870121	          0.70503446	          0.55236796	          0.01149455	          0.00954859	          0.01805522	          0.02663470	          0.00947573	
          0.51666677	          0.00508425	          0.06021730	          0.03869504	          0.07490075	          0.00248933	          0.00474958	          0.12839469	          0.28990403	          0.38495267	          0.19485538	          0.05997987	          0.37295613	          0.43217590	          0.53238779	          0.33196402	          0.00959225	          0.09689491	          0.16917458	          0.23377263	          0.10457654	          0.07107523	          0.15114162	          0.10495574	          0.17105328	          0.03885820	          0.05807249	          0.14434512	          0.30981296	          0.55107453	          0.06855139	          0.02250434	          0.04965141	          0.09735892	          0.13758492	          0.05713292	          0.01723828	          0.04399986	          0.20688337	          0.27706434	          0.13670240	          0.09197284	          0.63009254	          0.63230586	          0.70958073	          0.55503099	          0.00555820	          0.00939086	          0.01832851	          0.02716729	          0.00948974	
          0.51759273	          0.03167621	          0.06178586	          0.03923797	          0.07565146	          0.00282449	          0.04886185	          0.12856837	          0.29332754	          0.38956703	          0.19708805	          0.06721233	          0.37203780	          0.43275818	          0.53171705	          0.33379931	          0.03398627	          0.09696458	          0.17015219	          0.23474339	          0.10556099	          0.02556251	          0.15092873	          0.10543068	          0.17144396	          0.03941739	          0.03442834	          0.14429459	          0.31179842	          0.55286813	          0.07072872	          0.01737112	          0.04976283	          0.09668054	          0.13598376	          0.05737732	          0.03696981	          0.04204330	          0.20981373	          0.28018877	          0.13943869	          0.18248555	          0.63233748	          0.63585186	          0.71406537	          0.55763835	          0.00334679	          0.00923542	          0.01860599	          0.02770600	          0.00950599	
          0.51851869	          0.02974260	          0.06340965	          0.03979850	          0.07642341	          0.00317359	          0.09998616	          0.12885114	          0.29676142	          0.39419442	          0.19932842	          0.08172095	          0.37124678	          0.43328980	          0.53100385	          0.33557574	          0.07101635	          0.09706772	          0.17113785	          0.23572121	          0.10655450	          0.02381642	          0.15064122	          0.10591242	          0.17184678	          0.03997806	          0.00022687	          0.14416090	          0.31379026	          0.55465443	          0.07292609	          0.01648199	          0.04989479	          0.09600910	          0.13440765	          0.05761055	          0.03399400	          0.04008144	          0.21277432	          0.28335243	          0.14219621	          0.11153916	          0.63446703	          0.63933766	          0.71848645	          0.56018887	          0.00735201	          0.00908299	          0.01888760	          0.02825062	          0.00952457	
